# xmcd CD database file
#
# Track frame offsets:
#	150
#	12455
#	26667
#	38802
#	50312
#	63417
#	78195
#	89445
#	103577
#	117450
#	130832
#	144790
#	157050
#	171855
#	182100
#	196547
#	208520
#	220350
#	233380
#	245667
#
# Disc length: 3470 seconds
#
# Revision: 3
# Processed by: cddbd v1.5PL3 Copyright (c) Steve Scherf et al.
# Submitted via: CDex 1.51
#
DISCID=0d0d8c14
DTITLE=Ronny - 071 Meine grössten Erfolge
DYEAR=1991
DGENRE=Volksweisen
TTITLE0=Oh My Darling Caroline
TTITLE1=Tom Dooley
TTITLE2=Kein Gold im Blue River
TTITLE3=Dunja du
TTITLE4=Mit dem Wind muß ich weiterzieh'n
TTITLE5=Doch dann kamst du
TTITLE6=Das Haus am alten Ohio
TTITLE7=Laura, oh Laura
TTITLE8=Darling, Good Night
TTITLE9=Good Morning, My Sweet Adalita
TTITLE10=Nur noch einmal nach Haus 
TTITLE11=Laß' die Sonne wieder scheinen
TTITLE12=Er war nur in armer Zigeuner
TTITLE13=Eine kleine Träne
TTITLE14=Bei dir am Red River
TTITLE15=Anja, Anja
TTITLE16=Little Sweetheart Belinda
TTITLE17=Kleine Annabell
TTITLE18=Glory,  Glory Hallejujah
TTITLE19=Adios, My Darling
EXTD=YEAR: 1991
EXTT0=
EXTT1=
EXTT2=
EXTT3=
EXTT4=
EXTT5=
EXTT6=
EXTT7=
EXTT8=
EXTT9=
EXTT10=Detroit City
EXTT11=
EXTT12=
EXTT13=
EXTT14=
EXTT15=
EXTT16=
EXTT17=
EXTT18=
EXTT19=
PLAYORDER=
